<svg width="165" height="56" viewBox="0 0 165 56" fill="none" xmlns="http://www.w3.org/2000/svg">
  <path d="M164 45C158.4 47 157.333 42.5 157.5 40V37M157.5 37C155.667 39.3333 150.9 44.2 146.5 45C141 46 137 44 136 40.5C135.2 37.7 135.333 27.6667 135.5 23C135.5 20 137.7 14 146.5 14C155.3 14 157.5 19 157.5 21.5M157.5 37L157.5 21.5M157.5 15L157.5 21.5M120.5 1L118 10M118 15V40C117.833 42.6667 119.6 47.4 128 45M87.0001 56V44.5M87.0001 44.5V15C89.6668 14.5 96.0001 13.8 100 15C104 16.2 105 20.8333 105 23V37C104.833 40.3333 101 46.5 87.0001 44.5ZM87.0001 44.5C81.3334 45.3333 70.9001 46 69.5001 37C68.2689 29.0852 69.3334 19 69.5001 15M26.5 3.5H1L18 24L1.5 44.5H26.5M34.5 23V37C34.5 48.5 57.5 49 57.5 37V23C57.5 10.5 34.5 11 34.5 23Z" stroke="#111111" stroke-width="1.3" stroke-linejoin="round" stroke-dasharray="3 6"/>
</svg>
